<svg width="59" height="58" viewBox="0 0 59 58" fill="none" xmlns="http://www.w3.org/2000/svg">
<path d="M50.2184 5.28361L41.6301 13.8545C41.3876 14.0974 41.0895 14.2777 40.7616 14.38C40.4337 14.4823 40.0857 14.5034 39.7478 14.4415L11.1595 11.7411L9.15953 13.6196L29.5125 21.8383C29.8848 21.9194 30.2174 22.1269 30.4537 22.4253C30.679 22.6236 30.8595 22.8675 30.9831 23.1408C31.1067 23.4141 31.1706 23.7105 31.1706 24.0103C31.1706 24.3102 31.1067 24.6066 30.9831 24.8798C30.8595 25.1531 30.679 25.397 30.4537 25.5954L21.0419 34.9881C20.7494 35.1329 20.4273 35.2083 20.1007 35.2083C19.7742 35.2083 19.4521 35.1329 19.1595 34.9881L9.27718 33.4618L6.80659 36.0447L17.0419 41.0933C17.2773 41.1614 17.4945 41.2811 17.6777 41.4436C17.8608 41.606 18.0054 41.8073 18.1007 42.0326L22.8066 52.0124L25.2772 49.5468L24.336 39.8018C24.1712 39.4949 24.085 39.1521 24.085 38.8039C24.085 38.4556 24.1712 38.1128 24.336 37.8059L33.7478 28.2958C34.0196 28.242 34.2994 28.242 34.5713 28.2958C34.8406 28.1842 35.1301 28.1293 35.4216 28.1346C35.7132 28.1399 36.0005 28.2052 36.2655 28.3264C36.5306 28.4477 36.7677 28.6222 36.9621 28.8392C37.1564 29.0562 37.3037 29.3108 37.3948 29.5873L45.7478 50.0164L47.8654 47.6682L44.336 19.1379C44.277 18.7904 44.3113 18.4336 44.4352 18.1036C44.5592 17.7737 44.7685 17.4824 45.0419 17.2593L53.6301 8.68847C54.0151 8.22093 54.2144 7.62842 54.19 7.02374C54.1656 6.41907 53.9192 5.84447 53.4977 5.40937C53.0763 4.97426 52.5092 4.70904 51.9045 4.6642C51.2998 4.61936 50.6996 4.79803 50.2184 5.1662V5.28361ZM47.0419 2.11357C48.3212 0.821307 50.0624 0.0891381 51.8826 0.0781289C53.7029 0.0671197 55.4529 0.778172 56.7478 2.05486C58.0427 3.33155 58.7763 5.0693 58.7873 6.88582C58.7984 8.70234 58.0859 10.4488 56.8066 11.7411L48.9242 19.6075L52.336 48.2553C52.3475 48.5817 52.2907 48.9069 52.1692 49.2101C52.0476 49.5134 51.864 49.788 51.6301 50.0164L46.5713 55.065C46.3726 55.2899 46.1282 55.47 45.8543 55.5933C45.5805 55.7167 45.2835 55.7805 44.9831 55.7805C44.6826 55.7805 44.3856 55.7167 44.1118 55.5933C43.8379 55.47 43.5936 55.2899 43.3948 55.065C43.3562 54.7924 43.3562 54.5157 43.3948 54.2431L35.1595 33.9314L28.9242 40.1541L30.336 49.899C30.4046 50.2643 30.3754 50.6411 30.2515 50.9915C30.1276 51.3419 29.9132 51.6536 29.6301 51.895L24.336 57.2958C24.1373 57.5206 23.8929 57.7007 23.619 57.8241C23.3452 57.9475 23.0482 58.0113 22.7478 58.0113C22.4473 58.0113 22.1503 57.9475 21.8765 57.8241C21.6027 57.7007 21.3583 57.5206 21.1595 57.2958V56.5913L15.5125 44.8504L1.98306 38.6277C1.64707 38.5243 1.34026 38.3432 1.08758 38.0992C0.834902 37.8551 0.643472 37.5551 0.528846 37.2233C0.41422 36.8916 0.379632 36.5375 0.427892 36.1899C0.476153 35.8424 0.6059 35.511 0.806591 35.2229C1.03867 35.168 1.2804 35.168 1.51247 35.2229L6.92424 29.8221C7.2211 29.6928 7.54151 29.626 7.86542 29.626C8.18932 29.626 8.50973 29.6928 8.80659 29.8221L18.6889 31.231L24.9242 25.0083L4.45365 15.9678C4.17247 15.864 3.91508 15.7049 3.69681 15.4998C3.47853 15.2947 3.30382 15.0478 3.18308 14.774C3.06234 14.5001 2.99804 14.2048 2.99399 13.9057C2.98995 13.6065 3.04624 13.3096 3.15953 13.0326V12.3281L8.68894 7.16215C9.00565 7.02975 9.34558 6.96157 9.68894 6.96157C10.0323 6.96157 10.3722 7.02975 10.6889 7.16215L39.2772 9.97996L47.0419 2.11357Z" fill="#C0965C"/>
</svg>
