<svg width="59" height="56" viewBox="0 0 59 56" fill="none" xmlns="http://www.w3.org/2000/svg">
<path d="M28.4916 22.1222C28.4764 21.0866 28.049 20.0964 27.2982 19.3568C26.6054 18.666 25.6673 18.2543 24.6727 18.2045H17.6316C17.4832 18.2756 17.3198 18.3126 17.1542 18.3126C16.9886 18.3126 16.8252 18.2756 16.6768 18.2045C16.5676 17.9063 16.5676 17.5809 16.6768 17.2827V12.5584C16.6032 12.4152 16.5649 12.2574 16.5649 12.0975C16.5649 11.9376 16.6032 11.7799 16.6768 11.6366C16.9857 11.5312 17.3227 11.5312 17.6316 11.6366H24.6727C25.0353 11.6839 25.3718 11.8448 25.6305 12.0946C25.8892 12.3444 26.0558 12.6693 26.1048 13.0193C26.086 13.1902 26.1071 13.363 26.1664 13.5251C26.2257 13.6871 26.3218 13.8343 26.4477 13.9558C26.5735 14.0773 26.726 14.1701 26.8938 14.2274C27.0616 14.2847 27.2406 14.305 27.4176 14.2868C27.7657 14.2868 28.0996 14.1533 28.3458 13.9156C28.592 13.6779 28.7303 13.3555 28.7303 13.0193C28.715 11.9838 28.2877 10.9936 27.5369 10.2539C27.2287 9.77304 26.8101 9.36706 26.3135 9.06736C25.8168 8.76765 25.2554 8.58226 24.6727 8.52551H22.4052V7.48847C22.4052 7.30689 22.3682 7.12709 22.2962 6.95933C22.2242 6.79157 22.1188 6.63914 21.9858 6.51074C21.8528 6.38234 21.6949 6.28049 21.5212 6.21101C21.3474 6.14152 21.1612 6.10575 20.9731 6.10575C20.7902 6.10502 20.6092 6.14121 20.4416 6.21198C20.274 6.28276 20.1236 6.38657 20 6.51676C19.8764 6.64694 19.7823 6.80063 19.7238 6.96797C19.6654 7.1353 19.6437 7.31259 19.6604 7.48847V8.52551H17.6316C17.0882 8.52789 16.5517 8.64219 16.0578 8.86077C15.5638 9.07934 15.1239 9.39716 14.7674 9.793C14.3574 10.1373 14.0282 10.562 13.8018 11.0389C13.5755 11.5158 13.4571 12.0338 13.4546 12.5584V16.8218C13.4405 17.3489 13.5514 17.8721 13.779 18.3514C14.0065 18.8308 14.3446 19.2535 14.7674 19.5872C15.5038 20.3023 16.4734 20.75 17.5122 20.8547H24.6727C24.9797 20.739 25.3205 20.739 25.6274 20.8547C25.7366 21.1529 25.7366 21.4783 25.6274 21.7765V26.5008C25.7366 26.799 25.7366 27.1244 25.6274 27.4226C25.3205 27.5383 24.9797 27.5383 24.6727 27.4226H17.6316C17.3246 27.5383 16.9838 27.5383 16.6768 27.4226C16.5676 27.1244 16.5676 26.799 16.6768 26.5008C16.6935 26.3249 16.6718 26.1476 16.6134 25.9803C16.5549 25.813 16.4608 25.6593 16.3372 25.5291C16.2136 25.3989 16.0632 25.2951 15.8956 25.2243C15.728 25.1535 15.547 25.1174 15.3641 25.1181C15.176 25.1181 14.9898 25.1539 14.816 25.2233C14.6423 25.2928 14.4844 25.3947 14.3514 25.5231C14.2184 25.6515 14.113 25.8039 14.041 25.9717C13.969 26.1394 13.932 26.3192 13.932 26.5008C13.9344 27.0254 14.0528 27.5434 14.2792 28.0203C14.5056 28.4972 14.8348 28.922 15.2447 29.2662C16.0108 29.9912 17.0364 30.4038 18.1089 30.4185H20.1377V31.5708C20.1377 31.9069 20.276 32.2293 20.5222 32.467C20.7684 32.7047 21.1023 32.8383 21.4505 32.8383C21.6326 32.8543 21.8163 32.8334 21.9896 32.777C22.1629 32.7205 22.3221 32.6297 22.4569 32.5104C22.5917 32.391 22.6993 32.2458 22.7726 32.084C22.8459 31.9222 22.8833 31.7474 22.8826 31.5708V30.4185H24.6727C25.7489 30.4185 26.7809 30.0058 27.5419 29.271C28.3028 28.5363 28.7303 27.5399 28.7303 26.5008V23.044V22.1222H28.4916ZM46.5122 18.5502C44.7758 17.7947 42.9199 17.3273 41.0225 17.1675C40.57 13.5409 39.0702 10.1103 36.6943 7.26757C34.3184 4.42486 31.1624 2.28468 27.5866 1.09149C24.0108 -0.10169 20.1596 -0.299756 16.4728 0.51992C12.786 1.3396 9.4123 3.14396 6.73712 5.7269C4.06193 8.30984 2.19313 11.5672 1.34417 15.1269C0.495224 18.6865 0.700364 22.405 1.93616 25.8574C3.17196 29.3099 5.38858 32.3571 8.33281 34.6511C11.277 36.945 14.8302 38.3931 18.5863 38.83C18.9664 42.2265 20.2708 45.4654 22.3668 48.2177C24.4629 50.9701 27.276 53.1378 30.5204 54.5008C32.9837 55.4727 35.6167 55.9811 38.2776 55.9988C43.6696 56.0296 48.855 53.9988 52.7011 50.35C56.5472 46.7013 58.7414 41.7312 58.8044 36.5255C58.8293 32.7358 57.7151 29.0205 55.5968 25.8299C53.4786 22.6394 50.4472 20.1106 46.8702 18.5502H46.5122ZM5.33938 19.472C5.31579 16.4541 6.22262 13.4976 7.94447 10.9788C9.66633 8.45995 12.1254 6.49264 15.0087 5.32719C17.892 4.16173 21.0693 3.85082 24.1361 4.43402C27.203 5.01722 30.0209 6.46816 32.2311 8.60221C34.4414 10.7363 35.9442 13.4569 36.5482 16.4181C37.1522 19.3792 36.8302 22.4469 35.6231 25.2308C34.416 28.0147 32.3785 30.3889 29.7697 32.0514C27.1609 33.7139 24.0988 34.5894 20.9731 34.5667C16.8268 34.5667 12.8503 32.9763 9.9184 30.1455C6.9865 27.3147 5.33938 23.4754 5.33938 19.472ZM49.7344 47.1263C46.7893 49.9729 42.8028 51.587 38.6357 51.6202C36.5516 51.5931 34.4896 51.2028 32.5493 50.4679C30.1044 49.4627 27.96 47.8811 26.3128 45.8678C24.6656 43.8546 23.5682 41.4743 23.1213 38.9453C26.2011 38.5802 29.1682 37.5991 31.8332 36.0646V36.6407C32.5554 37.3586 33.5417 37.7726 34.5781 37.793H41.4999C41.8068 37.6773 42.1476 37.6773 42.4546 37.793C42.5456 38.1331 42.5456 38.4899 42.4546 38.83V43.0934C42.4056 43.4435 42.239 43.7684 41.9803 44.0182C41.7216 44.2679 41.3851 44.4288 41.0225 44.4761H35.1748C34.8659 44.5816 34.5289 44.5816 34.22 44.4761C34.1002 44.1797 34.1002 43.8507 34.22 43.5543C34.1925 43.1964 34.0327 42.86 33.7699 42.6062C33.5071 42.3524 33.1586 42.1982 32.7879 42.1716C32.4292 42.2006 32.0949 42.3589 31.8516 42.6152C31.6083 42.8714 31.4739 43.2067 31.4752 43.5543C31.4905 44.5899 31.9178 45.5801 32.6686 46.3197C33.0252 46.7156 33.4651 47.0334 33.959 47.252C34.4529 47.4705 34.9895 47.5848 35.5328 47.5872H37.5616V48.6243C37.5616 48.8058 37.5986 48.9856 37.6706 49.1534C37.7426 49.3212 37.8481 49.4736 37.981 49.602C38.114 49.7304 38.2719 49.8322 38.4457 49.9017C38.6194 49.9712 38.8056 50.007 38.9937 50.007C39.1766 50.0077 39.3577 49.9715 39.5252 49.9008C39.6928 49.83 39.8432 49.7262 39.9668 49.596C40.0904 49.4658 40.1845 49.3121 40.243 49.1448C40.3015 48.9774 40.3231 48.8001 40.3065 48.6243V47.472H42.3353C43.3258 47.3454 44.2256 46.849 44.8414 46.0893C45.2359 45.7393 45.5469 45.3107 45.7529 44.8332C45.959 44.3557 46.0552 43.8407 46.0348 43.3239V39.1757C46.0568 38.6415 45.9619 38.1089 45.7563 37.6125C45.5506 37.1161 45.2389 36.6672 44.8414 36.2951C44.1192 35.5772 43.1329 35.1631 42.0966 35.1428H35.1748C34.9813 35.1211 34.7953 35.0582 34.6302 34.9586C34.4651 34.8589 34.325 34.725 34.22 34.5667C36.3819 32.8343 38.1321 30.6728 39.3517 28.2292H42.2159C42.5785 28.2765 42.915 28.4374 43.1737 28.6872C43.4324 28.937 43.599 29.2618 43.648 29.6119C43.648 29.9481 43.7863 30.2705 44.0325 30.5082C44.2787 30.7459 44.6126 30.8794 44.9608 30.8794C45.3089 30.8794 45.6428 30.7459 45.889 30.5082C46.1352 30.2705 46.2735 29.9481 46.2735 29.6119C46.2735 28.5729 45.846 27.5764 45.0851 26.8417C44.3241 26.107 43.2921 25.6942 42.2159 25.6942H40.1871C40.6748 24.3926 40.9955 23.0382 41.1418 21.6613C42.3944 21.7758 43.6111 22.1283 44.7221 22.6983C47.0563 23.6651 49.1114 25.1664 50.7097 27.0724C52.3079 28.9783 53.4011 31.2316 53.8947 33.6372C54.3883 36.0427 54.2674 38.5282 53.5426 40.8786C52.8177 43.2289 51.5106 45.3733 49.7344 47.1263Z" fill="#C0965C"/>
</svg>
