<svg width="46" height="35" viewBox="0 0 46 35" fill="none" xmlns="http://www.w3.org/2000/svg">
<path d="M1.21285 11.5338L7.9083 0.994636C8.04816 0.750174 8.24542 0.543417 8.48303 0.392207C8.72065 0.240997 8.99149 0.149877 9.27218 0.126709L37.5418 0.126709C37.86 0.126709 38.1711 0.220903 38.4359 0.397421C38.7007 0.573939 38.9073 0.824882 39.0297 1.11863L45.3532 11.6577C45.5664 11.9678 45.6806 12.3353 45.6806 12.7117C45.6806 13.088 45.5664 13.4555 45.3532 13.7656L24.6469 34.2239C24.4956 34.406 24.3061 34.5525 24.0918 34.6531C23.8775 34.7536 23.6437 34.8058 23.407 34.8058C23.1703 34.8058 22.9365 34.7536 22.7222 34.6531C22.5079 34.5525 22.3184 34.406 22.1671 34.2239L1.21285 13.7656C0.950467 13.4529 0.806641 13.0578 0.806641 12.6497C0.806641 12.2415 0.950467 11.8464 1.21285 11.5338ZM5.18052 11.5338H13.6118L9.76814 4.46635L5.55249 11.5338H5.18052ZM37.0459 4.46635L32.7062 11.5338H41.2615L37.0459 4.46635ZM40.5176 13.5176H31.5903L26.0108 27.5284L40.5176 13.5176ZM20.3073 27.5284L15.0997 13.5176H6.29643L20.3073 27.5284ZM35.31 3.59842H26.0108L30.9704 10.6658L35.31 3.59842ZM20.9272 3.59842H11.504L15.9676 10.6658L20.9272 3.59842ZM17.8275 11.5338H28.9865L23.407 3.59842L17.8275 11.5338ZM29.4825 13.5176H17.0835L23.159 30.1322L29.2345 13.5176H29.4825Z" fill="#C0965C"/>
</svg>
