<svg width="45" height="45" viewBox="0 0 45 45" fill="none" xmlns="http://www.w3.org/2000/svg">
<path d="M22.9209 2.53784e-05C25.8209 -0.00437221 28.6932 0.562785 31.3739 1.66908C34.0545 2.77537 36.4908 4.39911 38.5436 6.44749C40.592 8.50025 42.2157 10.9366 43.322 13.6172C44.4283 16.2979 44.9955 19.1702 44.9911 22.0702C45.0037 24.3898 44.6265 26.695 43.8752 28.8896C43.2532 30.9381 42.289 32.8665 41.0234 34.5931V42.5285C41.0234 42.9889 40.8405 43.4304 40.515 43.7559C40.1894 44.0814 39.7479 44.2643 39.2875 44.2643H22.9209C20.016 44.3036 17.1333 43.7524 14.4478 42.6441C11.7623 41.5358 9.32992 39.8935 7.29822 37.8169C3.14148 33.6554 0.806641 28.014 0.806641 22.1322C0.806641 16.2503 3.14148 10.609 7.29822 6.44749C11.4667 2.34466 17.0721 0.0312792 22.9209 2.53784e-05ZM11.8858 17.7305H33.956C34.2191 17.7305 34.4714 17.626 34.6574 17.44C34.8434 17.254 34.9479 17.0017 34.9479 16.7386C34.9691 16.6035 34.9581 16.4653 34.9157 16.3353C34.8734 16.2053 34.8009 16.0871 34.7042 15.9904C34.6075 15.8937 34.4893 15.8213 34.3593 15.7789C34.2293 15.7366 34.0911 15.7255 33.956 15.7467H11.8858C11.7507 15.7255 11.6126 15.7366 11.4825 15.7789C11.3525 15.8213 11.2343 15.8937 11.1376 15.9904C11.041 16.0871 10.9685 16.2053 10.9261 16.3353C10.8838 16.4653 10.8727 16.6035 10.8939 16.7386C10.8939 17.0017 10.9984 17.254 11.1844 17.44C11.3705 17.626 11.6228 17.7305 11.8858 17.7305ZM11.8858 23.1861H33.956C34.0863 23.1861 34.2152 23.1604 34.3356 23.1106C34.4559 23.0607 34.5653 22.9877 34.6574 22.8956C34.7495 22.8035 34.8226 22.6941 34.8724 22.5738C34.9223 22.4534 34.9479 22.3244 34.9479 22.1942C34.9691 22.0591 34.9581 21.9209 34.9157 21.7909C34.8734 21.6609 34.8009 21.5427 34.7042 21.446C34.6075 21.3493 34.4893 21.2768 34.3593 21.2345C34.2293 21.1921 34.0911 21.1811 33.956 21.2023H11.8858C11.7507 21.1811 11.6126 21.1921 11.4825 21.2345C11.3525 21.2768 11.2343 21.3493 11.1376 21.446C11.041 21.5427 10.9685 21.6609 10.9261 21.7909C10.8838 21.9209 10.8727 22.0591 10.8939 22.1942C10.8939 22.3244 10.9196 22.4534 10.9694 22.5738C11.0193 22.6941 11.0923 22.8035 11.1844 22.8956C11.2766 22.9877 11.3859 23.0607 11.5062 23.1106C11.6266 23.1604 11.7556 23.1861 11.8858 23.1861ZM11.8858 28.6416H33.956C34.2191 28.6416 34.4714 28.5371 34.6574 28.3511C34.8434 28.1651 34.9479 27.9128 34.9479 27.6497C34.9691 27.5146 34.9581 27.3764 34.9157 27.2464C34.8734 27.1164 34.8009 26.9982 34.7042 26.9015C34.6075 26.8048 34.4893 26.7324 34.3593 26.69C34.2293 26.6476 34.0911 26.6366 33.956 26.6578H11.8858C11.7507 26.6366 11.6126 26.6476 11.4825 26.69C11.3525 26.7324 11.2343 26.8048 11.1376 26.9015C11.041 26.9982 10.9685 27.1164 10.9261 27.2464C10.8838 27.3764 10.8727 27.5146 10.8939 27.6497C10.8939 27.9128 10.9984 28.1651 11.1844 28.3511C11.3705 28.5371 11.6228 28.6416 11.8858 28.6416ZM36.6838 8.92728C34.8787 7.12517 32.7308 5.70298 30.367 4.74468C28.0032 3.78637 25.4713 3.31138 22.9209 3.34775C17.9346 3.37928 13.1641 5.3856 9.65402 8.92728C7.91721 10.6715 6.54138 12.741 5.60525 15.0175C4.66913 17.294 4.19109 19.7327 4.19848 22.1942C4.21045 27.1601 6.16916 31.9233 9.65402 35.4611C11.3982 37.1979 13.4678 38.5737 15.7443 39.5098C18.0207 40.446 20.4595 40.924 22.9209 40.9166H37.9237V34.2212C37.7992 33.9022 37.7992 33.5482 37.9237 33.2293C39.0745 31.6311 39.9929 29.8778 40.6514 28.0217C41.2506 26.1381 41.5437 24.1706 41.5194 22.1942C41.587 17.2607 39.7173 12.4974 36.3118 8.92728H36.6838Z" fill="#C0965C"/>
</svg>
