<svg width="45" height="49" viewBox="0 0 45 49" fill="none" xmlns="http://www.w3.org/2000/svg">
<path d="M44.5762 11.5495V12.6654C44.6527 13.283 44.6527 13.9076 44.5762 14.5252V41.679C44.5651 43.3896 43.8996 45.0311 42.7164 46.2666C41.5337 47.4534 39.9283 48.1223 38.2528 48.1264H7.25534C6.40584 48.1339 5.56323 47.9735 4.77593 47.6543C3.98863 47.3352 3.27217 46.8635 2.66773 46.2666C1.48447 45.0311 0.818997 43.3896 0.807881 41.679V14.5252C0.791018 13.6739 0.946264 12.8279 1.26431 12.0381C1.58236 11.2482 2.05665 10.5307 2.65874 9.92863C3.26084 9.32654 3.97833 8.85225 4.76819 8.5342C5.55806 8.21616 6.40402 8.06091 7.25534 8.07777H22.6301C23.2441 6.33422 24.2641 4.76174 25.6058 3.49015C27.6766 1.49455 30.4184 0.344781 33.2932 0.266424C36.2592 0.256231 39.1099 1.41435 41.2285 3.49015C43.2842 5.68214 44.4739 8.54612 44.5762 11.5495ZM33.2932 6.09394C34.3681 6.09942 35.4175 6.42235 36.3095 7.02218C37.2016 7.62201 37.8966 8.47201 38.3072 9.46545C38.7178 10.4589 38.8258 11.5515 38.6176 12.6061C38.4094 13.6607 37.8942 14.6303 37.1368 15.3932C36.6515 15.9246 36.0563 16.3441 35.3925 16.6225C34.7288 16.9008 34.0124 17.0313 33.2932 17.005C32.5739 17.0313 31.8575 16.9008 31.1938 16.6225C30.53 16.3441 29.9348 15.9246 29.4495 15.3932C28.6921 14.6303 28.177 13.6607 27.9688 12.6061C27.7606 11.5515 27.8685 10.4589 28.2792 9.46545C28.6898 8.47201 29.3847 7.62201 30.2768 7.02218C31.1688 6.42235 32.2182 6.09942 33.2932 6.09394ZM35.773 9.19368C35.4592 8.84766 35.0764 8.57115 34.6493 8.38192C34.2222 8.19269 33.7603 8.09493 33.2932 8.09493C32.826 8.09493 32.3641 8.19269 31.937 8.38192C31.5099 8.57115 31.1272 8.84766 30.8134 9.19368C30.4834 9.48799 30.2232 9.85214 30.0516 10.2597C29.88 10.6672 29.8014 11.1078 29.8215 11.5495C29.8215 12.4702 30.1872 13.3533 30.8383 14.0044C31.4894 14.6554 32.3724 15.0212 33.2932 15.0212C34.2139 15.0212 35.097 14.6554 35.748 14.0044C36.3991 13.3533 36.7649 12.4702 36.7649 11.5495C36.7849 11.1078 36.7063 10.6672 36.5348 10.2597C36.3632 9.85214 36.1029 9.48799 35.773 9.19368ZM22.0101 11.5495H7.25534C6.84051 11.5541 6.4328 11.6578 6.06615 11.8519C5.69951 12.046 5.38455 12.3249 5.14752 12.6654C4.85247 12.9279 4.621 13.2541 4.47063 13.6193C4.32027 13.9845 4.25494 14.3791 4.27959 14.7732V41.679C4.25494 42.0731 4.32027 42.4677 4.47063 42.8329C4.621 43.1981 4.85247 43.5243 5.14752 43.7868C5.41003 44.0818 5.73622 44.3133 6.1014 44.4637C6.46658 44.614 6.86119 44.6794 7.25534 44.6547H38.8727C39.2475 44.6695 39.6207 44.5991 39.9644 44.4487C40.308 44.2984 40.613 44.0721 40.8565 43.7868C41.1516 43.5243 41.383 43.1981 41.5334 42.8329C41.6838 42.4677 41.7491 42.0731 41.7245 41.679V18.8649C40.7152 20.1471 39.448 21.2031 38.0048 21.9646L34.5331 26.0563C34.4518 26.1594 34.3483 26.2428 34.2301 26.3002C34.112 26.3575 33.9824 26.3873 33.8511 26.3873C33.7198 26.3873 33.5902 26.3575 33.4721 26.3002C33.354 26.2428 33.2504 26.1594 33.1692 26.0563L29.8215 21.9646C27.792 21.0791 26.0367 19.6663 24.7379 17.873C23.1919 16.1009 22.2382 13.8901 22.0101 11.5495ZM39.7406 4.97803C38.0765 3.37193 35.8539 2.47435 33.5411 2.47435C31.2284 2.47435 29.0058 3.37193 27.3417 4.97803C26.4666 5.83231 25.7738 6.85504 25.305 7.98448C24.8362 9.11393 24.6011 10.3267 24.6139 11.5495C24.4463 13.3442 24.7902 15.1496 25.6058 16.757C26.7318 18.2361 28.229 19.3911 29.9454 20.1048L32.7972 23.5765L35.649 20.1048C37.3654 19.3911 38.8626 18.2361 39.9886 16.757C41.3323 15.3184 42.1985 13.4995 42.4684 11.5495C42.4812 10.3267 42.2461 9.11393 41.7773 7.98448C41.3085 6.85504 40.6157 5.83231 39.7406 4.97803ZM26.3497 25.0644C26.5543 24.8814 26.8192 24.7802 27.0937 24.7802C27.3682 24.7802 27.633 24.8814 27.8376 25.0644C28.012 25.2486 28.1092 25.4926 28.1092 25.7463C28.1092 26 28.012 26.244 27.8376 26.4282L25.6058 28.6601L31.4333 34.6116L38.0048 28.0401C38.2021 27.8428 38.4697 27.732 38.7487 27.732C39.0277 27.732 39.2953 27.8428 39.4926 28.0401C39.69 28.2374 39.8008 28.505 39.8008 28.784C39.8008 29.0631 39.69 29.3307 39.4926 29.528L32.9212 35.9754L35.029 38.2073C35.1574 38.2844 35.2636 38.3935 35.3374 38.5238C35.4111 38.6542 35.4499 38.8014 35.4499 38.9512C35.4499 39.101 35.4111 39.2482 35.3374 39.3786C35.2636 39.5089 35.1574 39.618 35.029 39.6951C34.8448 39.8695 34.6008 39.9667 34.3471 39.9667C34.0934 39.9667 33.8494 39.8695 33.6651 39.6951L30.8134 36.7194L24.2419 30.2719L12.4629 42.0509C12.2787 42.2253 12.0346 42.3225 11.781 42.3225C11.5273 42.3225 11.2832 42.2253 11.099 42.0509C10.916 41.8463 10.8149 41.5815 10.8149 41.307C10.8149 41.0325 10.916 40.7677 11.099 40.5631L23.498 28.1641L17.2985 23.8245L9.36317 31.7598C9.15858 31.9428 8.89372 32.044 8.61923 32.044C8.34474 32.044 8.07988 31.9428 7.87529 31.7598C7.6923 31.5552 7.59113 31.2903 7.59113 31.0159C7.59113 30.7414 7.6923 30.4765 7.87529 30.2719L15.8106 22.4606L10.851 17.377C10.7479 17.2958 10.6645 17.1922 10.6071 17.0741C10.5498 16.956 10.52 16.8264 10.52 16.6951C10.52 16.5637 10.5498 16.4342 10.6071 16.316C10.6645 16.1979 10.7479 16.0943 10.851 16.0131C10.9323 15.9099 11.0358 15.8265 11.154 15.7692C11.2721 15.7119 11.4017 15.6821 11.533 15.6821C11.6643 15.6821 11.7939 15.7119 11.912 15.7692C12.0301 15.8265 12.1337 15.9099 12.2149 16.0131L17.9185 21.5926L23.374 27.1722L26.3497 25.0644Z" fill="#C0965C"/>
</svg>
