<svg width="37" height="43" viewBox="0 0 37 43" fill="none" xmlns="http://www.w3.org/2000/svg">
<path d="M17.198 22.153L1.3273 2.93456C1.11837 2.74238 0.963897 2.49843 0.879508 2.22739C0.79512 1.95634 0.78381 1.66782 0.846723 1.391C0.909636 1.11418 1.04454 0.858891 1.23779 0.650947C1.43104 0.443002 1.67578 0.289783 1.94725 0.206787C2.31156 0.100016 2.69885 0.100016 3.06316 0.206787H34.1846C34.6449 0.206787 35.0865 0.389672 35.412 0.715207C35.7375 1.04074 35.9204 1.48226 35.9204 1.94264C36.0346 2.30584 36.0346 2.69535 35.9204 3.05855L19.9258 22.153V39.0155H28.605C29.0654 39.0155 29.5069 39.1984 29.8325 39.524C30.158 39.8495 30.3409 40.291 30.3409 40.7514C30.3409 41.2118 30.158 41.6533 29.8325 41.9788C29.5069 42.3044 29.0654 42.4873 28.605 42.4873H8.5187C8.29618 42.4879 8.07593 42.4425 7.87183 42.3538C7.66772 42.2652 7.48418 42.1353 7.33276 41.9722C7.18135 41.8091 7.06533 41.6165 6.99203 41.4064C6.91873 41.1963 6.88972 40.9733 6.90684 40.7514C6.90572 40.3117 7.07148 39.888 7.37066 39.5658C7.66985 39.2436 8.08015 39.047 8.5187 39.0155H17.5699V22.4009L17.198 22.153ZM8.76668 6.28228H28.481L30.5889 3.55451H6.53487L8.76668 6.28228ZM26.7452 8.26611H10.3785L18.5619 18.4333L26.7452 8.26611ZM20.5457 9.75399C20.0196 9.75399 19.515 9.963 19.1429 10.335C18.7709 10.7071 18.5619 11.2117 18.5619 11.7378C18.5934 12.2422 18.8163 12.7155 19.185 13.0611C19.5537 13.4068 20.0403 13.5987 20.5457 13.5977C20.7899 13.5977 21.0318 13.5496 21.2574 13.4561C21.4831 13.3626 21.6881 13.2256 21.8608 13.0529C22.0335 12.8802 22.1705 12.6752 22.264 12.4496C22.3574 12.2239 22.4055 11.9821 22.4055 11.7378C22.4065 11.2325 22.2146 10.7458 21.869 10.3771C21.5234 10.0084 21.0501 9.78557 20.5457 9.75399Z" fill="#C0965C"/>
</svg>
