<svg width="57" height="54" viewBox="0 0 57 54" fill="none" xmlns="http://www.w3.org/2000/svg">
<path d="M22.2752 43.4575C22.1018 43.4411 21.927 43.4624 21.7621 43.5198C21.5971 43.5772 21.4456 43.6695 21.3173 43.7908C21.1889 43.9121 21.0866 44.0597 21.0168 44.2242C20.9471 44.3887 20.9114 44.5664 20.9121 44.746V46.8544C20.9121 47.2272 21.0557 47.5847 21.3114 47.8484C21.567 48.112 21.9137 48.2601 22.2752 48.2601C22.4493 48.2608 22.6216 48.224 22.7811 48.1521C22.9406 48.0801 23.0838 47.9746 23.2014 47.8422C23.3191 47.7099 23.4086 47.5537 23.4643 47.3835C23.5199 47.2134 23.5405 47.0332 23.5247 46.8544V44.746C23.5247 44.4042 23.393 44.0765 23.1587 43.8348C22.9244 43.5932 22.6066 43.4575 22.2752 43.4575ZM25.7965 43.4575C25.4651 43.4575 25.1473 43.5932 24.913 43.8348C24.6786 44.0765 24.547 44.4042 24.547 44.746V46.8544C24.5312 47.0332 24.5518 47.2134 24.6074 47.3835C24.6631 47.5537 24.7526 47.7099 24.8703 47.8422C24.9879 47.9746 25.1311 48.0801 25.2906 48.1521C25.4501 48.224 25.6224 48.2608 25.7965 48.2601C26.158 48.2601 26.5047 48.112 26.7603 47.8484C27.016 47.5847 27.1596 47.2272 27.1596 46.8544V44.746C27.1603 44.5664 27.1246 44.3887 27.0549 44.2242C26.9851 44.0597 26.8827 43.9121 26.7544 43.7908C26.6261 43.6695 26.4746 43.5772 26.3096 43.5198C26.1446 43.4624 25.9699 43.4411 25.7965 43.4575ZM18.6403 43.4575C18.4762 43.4575 18.3137 43.4908 18.1621 43.5555C18.0106 43.6203 17.8728 43.7152 17.7568 43.8348C17.6408 43.9545 17.5487 44.0965 17.4859 44.2529C17.4231 44.4092 17.3908 44.5767 17.3908 44.746V46.8544C17.3908 47.1961 17.5225 47.5239 17.7568 47.7655C17.9911 48.0072 18.3089 48.1429 18.6403 48.1429C18.9717 48.1429 19.2895 48.0072 19.5238 47.7655C19.7582 47.5239 19.8898 47.1961 19.8898 46.8544V44.746C19.8898 44.4042 19.7582 44.0765 19.5238 43.8348C19.2895 43.5932 18.9717 43.4575 18.6403 43.4575ZM50.332 43.4575C49.9893 43.4562 49.6588 43.5881 49.4062 43.8269C49.1536 44.0657 48.9975 44.3938 48.9689 44.746V46.8544C48.9689 47.2272 49.1125 47.5847 49.3681 47.8484C49.6238 48.112 49.9705 48.2601 50.332 48.2601C50.5061 48.2608 50.6784 48.224 50.8379 48.1521C50.9974 48.0801 51.1406 47.9746 51.2582 47.8422C51.3759 47.7099 51.4654 47.5537 51.5211 47.3835C51.5767 47.2134 51.5973 47.0332 51.5815 46.8544V44.746C51.5815 44.5767 51.5492 44.4092 51.4864 44.2529C51.4236 44.0965 51.3315 43.9545 51.2155 43.8348C51.0995 43.7152 50.9618 43.6203 50.8102 43.5555C50.6586 43.4908 50.4961 43.4575 50.332 43.4575ZM43.1758 43.4575C43.0024 43.4411 42.8277 43.4624 42.6627 43.5198C42.4977 43.5772 42.3462 43.6695 42.2179 43.7908C42.0896 43.9121 41.9872 44.0597 41.9174 44.2242C41.8477 44.3887 41.812 44.5664 41.8127 44.746V46.8544C41.8127 47.2272 41.9563 47.5847 42.212 47.8484C42.4676 48.112 42.8143 48.2601 43.1758 48.2601C43.3499 48.2608 43.5222 48.224 43.6817 48.1521C43.8412 48.0801 43.9844 47.9746 44.1021 47.8422C44.2197 47.7099 44.3092 47.5537 44.3649 47.3835C44.4205 47.2134 44.4411 47.0332 44.4253 46.8544V44.746C44.4253 44.4042 44.2937 44.0765 44.0593 43.8348C43.825 43.5932 43.5072 43.4575 43.1758 43.4575ZM46.6971 43.4575H46.2427C45.9114 43.4575 45.5935 43.5932 45.3592 43.8348C45.1249 44.0765 44.9933 44.4042 44.9933 44.746V46.8544C44.9933 47.1961 45.1249 47.5239 45.3592 47.7655C45.5935 48.0072 45.9114 48.1429 46.2427 48.1429C46.5741 48.1429 46.8919 48.0072 47.1263 47.7655C47.3606 47.5239 47.4922 47.1961 47.4922 46.8544V44.746C47.4922 44.4042 47.3606 44.0765 47.1263 43.8348C46.8919 43.5932 46.5741 43.4575 46.2427 43.4575H46.6971ZM55.6707 20.0301C55.2782 19.5551 54.7908 19.1732 54.2418 18.9103C53.6929 18.6475 53.0954 18.5101 52.4902 18.5074H49.764L40.7904 2.57677C40.5435 1.98933 40.1852 1.45873 39.7365 1.01617C39.2878 0.573614 38.7579 0.228037 38.1778 -0.000239551C37.6588 -0.235785 37.0979 -0.357422 36.5308 -0.357422C35.9637 -0.357422 35.4028 -0.235785 34.8837 -0.000239551L3.07844 19.4444C2.5204 19.739 2.02934 20.1524 1.63771 20.6572C1.24609 21.162 0.962822 21.7468 0.806639 22.3729C0.584806 22.9099 0.470459 23.4876 0.470459 24.0713C0.470459 24.6551 0.584806 25.2328 0.806639 25.7698L11.4841 43.6917V49.3143C11.4714 49.9191 11.5754 50.5204 11.7899 51.0834C12.0044 51.6465 12.3251 52.16 12.7336 52.5941C13.1093 53.0512 13.5803 53.4151 14.1113 53.6584C14.6423 53.9018 15.2197 54.0185 15.8006 53.9998H52.4902C53.0878 54.0195 53.6822 53.9038 54.2318 53.6609C54.7813 53.4181 55.2725 53.0539 55.6707 52.5941C56.4155 51.6749 56.8182 50.5121 56.8066 49.3143V23.4271C56.845 22.26 56.437 21.1242 55.6707 20.2644V20.0301ZM11.4841 23.4271V35.1408L5.12307 23.4271L36.8148 4.45095L44.5389 18.2731H15.8006C15.183 18.3017 14.5776 18.46 14.0214 18.7382C13.4651 19.0165 12.9699 19.4088 12.5658 19.8913C12.1617 20.3738 11.8574 20.9362 11.6714 21.5442C11.4854 22.1521 11.4217 22.7928 11.4841 23.4271ZM52.6038 49.3143H15.8006V23.4271H52.4902V49.3143H52.6038ZM34.8837 43.4575C34.5523 43.4575 34.2345 43.5932 34.0002 43.8348C33.7659 44.0765 33.6342 44.4042 33.6342 44.746V46.8544C33.557 47.0568 33.5308 47.2761 33.5579 47.4918C33.585 47.7075 33.6647 47.9126 33.7894 48.088C33.9141 48.2634 34.0799 48.4034 34.2712 48.495C34.4626 48.5865 34.6733 48.6266 34.8837 48.6115C35.0554 48.5579 35.2152 48.4699 35.3539 48.3526C35.4926 48.2352 35.6074 48.0907 35.6918 47.9275C35.7762 47.7643 35.8286 47.5854 35.8459 47.4013C35.8631 47.2172 35.845 47.0313 35.7924 46.8544V44.746C35.803 44.4572 35.7192 44.1732 35.5543 43.9395C35.3895 43.7058 35.1534 43.5361 34.8837 43.4575ZM38.5186 43.4575C38.1872 43.4575 37.8694 43.5932 37.6351 43.8348C37.4008 44.0765 37.2691 44.4042 37.2691 44.746V46.8544C37.2533 47.0332 37.2739 47.2134 37.3295 47.3835C37.3852 47.5537 37.4747 47.7099 37.5924 47.8422C37.71 47.9746 37.8532 48.0801 38.0127 48.1521C38.1722 48.224 38.3445 48.2608 38.5186 48.2601C38.7973 48.159 39.0367 47.9672 39.2006 47.7137C39.3645 47.4602 39.4441 47.1586 39.4273 46.8544V44.746C39.3988 44.3938 39.2427 44.0657 38.9901 43.8269C38.7375 43.5881 38.4069 43.4562 38.0642 43.4575H38.5186ZM31.3624 43.4575C31.189 43.4411 31.0143 43.4624 30.8493 43.5198C30.6843 43.5772 30.5328 43.6695 30.4045 43.7908C30.2762 43.9121 30.1738 44.0597 30.1041 44.2242C30.0343 44.3887 29.9986 44.5664 29.9993 44.746V46.8544C29.9993 47.2272 30.1429 47.5847 30.3986 47.8484C30.6542 48.112 31.0009 48.2601 31.3624 48.2601C31.6315 48.1558 31.8576 47.9591 32.0024 47.7031C32.1472 47.447 32.202 47.1473 32.1576 46.8544V44.746C32.1576 44.4042 32.0259 44.0765 31.7916 43.8348C31.5573 43.5932 31.2394 43.4575 30.9081 43.4575H31.3624ZM26.9324 29.7525H18.6403C18.4762 29.7525 18.3137 29.7858 18.1621 29.8505C18.0106 29.9153 17.8728 30.0102 17.7568 30.1299C17.6408 30.2495 17.5487 30.3916 17.4859 30.5479C17.4231 30.7042 17.3908 30.8718 17.3908 31.041V39.5919C17.3908 39.9337 17.5225 40.2614 17.7568 40.5031C17.9911 40.7447 18.3089 40.8804 18.6403 40.8804H26.9324C27.1058 40.8968 27.2805 40.8755 27.4455 40.8181C27.6105 40.7607 27.762 40.6684 27.8903 40.5471C28.0187 40.4258 28.121 40.2782 28.1908 40.1137C28.2605 39.9492 28.2962 39.7715 28.2955 39.5919V31.041C28.2962 30.8614 28.2605 30.6837 28.1908 30.5192C28.121 30.3548 28.0187 30.2071 27.8903 30.0858C27.762 29.9645 27.6105 29.8722 27.4455 29.8148C27.2805 29.7574 27.1058 29.7361 26.9324 29.7525ZM25.6829 38.3034H20.0034V32.4466H25.6829V38.3034Z" fill="#C0965C"/>
</svg>
