<svg width="59" height="54" viewBox="0 0 59 54" fill="none" xmlns="http://www.w3.org/2000/svg">
<path d="M28.3562 52.2957L6.28332 30.2279C3.8455 28.0826 2.02208 25.3279 0.999915 22.246C0.297757 19.0671 0.584528 15.7495 1.82178 12.7381C2.8387 10.2623 4.35783 8.02412 6.28332 6.16473C8.30467 4.12655 10.8087 2.63253 13.5627 1.82161C16.5433 0.884455 19.7399 0.884455 22.7206 1.82161C25.3746 2.5725 27.8502 3.84995 29.9999 5.57782C32.0708 3.74583 34.5142 2.38426 37.1619 1.58685C40.1823 0.647645 43.4168 0.647645 46.4372 1.58685C49.143 2.42901 51.6017 3.92004 53.5991 5.92997C55.6507 7.89115 57.2182 10.3022 58.1781 12.9729C59.0557 15.9218 59.0557 19.0623 58.1781 22.0112C57.289 25.0424 55.6306 27.7922 53.3643 29.9932L31.5262 52.2957C31.3279 52.5205 31.084 52.7005 30.8107 52.8239C30.5374 52.9472 30.241 53.011 29.9412 53.011C29.6414 53.011 29.345 52.9472 29.0717 52.8239C28.7984 52.7005 28.5545 52.5205 28.3562 52.2957ZM32.5829 8.98188L25.5384 16.0248C25.429 16.1706 25.2872 16.2889 25.1242 16.3704C24.9611 16.4519 24.7814 16.4943 24.5991 16.4943C24.4168 16.4943 24.2371 16.4519 24.074 16.3704C23.911 16.2889 23.7692 16.1706 23.6598 16.0248C23.514 15.9154 23.3957 15.7737 23.3141 15.6107C23.2326 15.4477 23.1902 15.268 23.1902 15.0857C23.1902 14.9035 23.2326 14.7238 23.3141 14.5608C23.3957 14.3978 23.514 14.256 23.6598 14.1467L28.1214 9.68617C26.3086 7.89872 24.0945 6.57059 21.6639 5.81258C19.4438 5.14001 17.0742 5.14001 14.8542 5.81258C12.7851 6.511 10.9269 7.72257 9.45336 9.33403C7.93503 10.816 6.77112 12.6216 6.0485 14.6162C5.44493 16.7259 5.44493 18.9625 6.0485 21.0722C6.70846 23.3554 7.96473 25.4217 9.68817 27.0586L29.9999 47.9525L50.4291 27.176C52.1155 25.5095 53.3655 23.4535 54.0687 21.1896C54.6723 19.0799 54.6723 16.8433 54.0687 14.7336C53.3279 12.6857 52.1223 10.8375 50.5465 9.33403C49.0464 7.80802 47.1905 6.67861 45.1457 6.04735C42.913 5.46567 40.5686 5.46567 38.3359 6.04735C36.2138 6.68068 34.2521 7.76139 32.5829 9.21665V8.98188Z" fill="#C0965C"/>
</svg>
